# xmcd
#
# Track frame offsets:
#	150
#	31650
#	49270
#	68852
#	88232
#	106132
#	135485
#	158687
#	183122
#	200995
#	216462
#	243047
#	256447
#	281260
#	306822
#
# Disc length: 4254 seconds
#
# Revision: 2
# Processed by: cddbd v1.5.2PL0 Copyright (c) Steve Scherf et al.
# Submitted via: audiograbber 1.83.01
#
DISCID=d0109c0f
DTITLE=Various CORRECTED - Late Night Blues
DYEAR=1998
DGENRE=Blues
TTITLE0=Albert Collins - Lights Are On But Nobody's Home
TTITLE1=Tinsley Ellis - Crime of Passion
TTITLE2=Clarence 'Gatemouth' Brown - Staighten Up
TTITLE3=Steady Rollin' Bob Margolin - Wee Wee Hours
TTITLE4=Jimmy Johnson Blues Band - Serves Me Right to Suffer
TTITLE5=Katie Webster - It's Mighty Hard
TTITLE6=Mellow Fellows - Feels Like Rain
TTITLE7=Johnny Heartsman - Tongue
TTITLE8=Little Charlie and the Nightcats - Sure Seems Strange
TTITLE9=Billy Boy Arnold - Worried Life Blues
TTITLE10=Lonnie Brooks - Holding On to the Memories
TTITLE11=Elvin Bishop - Devil's Slide
TTITLE12=Floyd Dixon - My Song is Don't Worry
TTITLE13=Kinsey Report - Answering Machine
TTITLE14=Charlie Musselwhite - My Road Lies in Darkness
EXTD=ID3G:   0\nErroneous transposition of artist names and song titles correc
EXTD=ted.
EXTT0=
EXTT1=
EXTT2=
EXTT3=
EXTT4=
EXTT5=
EXTT6=
EXTT7=
EXTT8=
EXTT9=
EXTT10=
EXTT11=
EXTT12=
EXTT13=
EXTT14=
PLAYORDER=
